<svg width="31" height="35" viewBox="0 0 31 35" fill="none" xmlns="http://www.w3.org/2000/svg">
<path fill-rule="evenodd" clip-rule="evenodd" d="M5.74179 34.3709C3.24423 34.9932 0.0160179 33.3483 0 29.9783V9.71945C0 7.77759 1.46194 5.84744 3.42351 5.36383L24.8499 0.0662267C27.2057 -0.370568 30.1875 1.37907 30.1875 4.55184L30.1567 24.7497C30.1567 26.8875 28.5962 28.6926 26.7591 29.1565L5.74179 34.3709Z" fill="#C62647"/>
<path fill-rule="evenodd" clip-rule="evenodd" d="M11.6795 8.6326C12.4576 8.57284 13.3552 7.85204 13.4156 6.71046C13.4451 6.14059 13.0262 5.75 12.4576 5.75C11.5002 5.75 10.8416 6.41104 10.6919 7.3715C10.5724 8.18225 10.9611 8.69297 11.6795 8.6326ZM15.9889 14.9381C18.7427 11.8454 21.9143 9.41316 24.9373 7.88222C25.0569 7.82185 25.087 7.7319 24.9971 7.64196C24.0995 6.74126 23.3214 6.23115 22.4835 6.23115C21.9143 6.23115 21.3456 6.50099 20.8072 6.86139C19.3108 7.82246 17.5451 9.77418 16.4084 11.3957C16.2883 10.6441 16.1386 9.80375 15.8996 9.02319C15.7197 8.45271 15.3907 8.2722 14.8214 8.39295L14.2239 8.54265C13.8641 8.6326 13.8943 8.72316 13.9244 9.02319C14.0735 10.6145 14.2232 12.2958 14.2232 13.8273C14.2232 14.5481 14.4931 14.7286 14.9711 14.9085C15.1806 14.9985 15.4209 15.0884 15.6901 15.0884C15.8096 15.0884 15.8688 15.0588 15.9889 14.9381ZM7.37006 20.3435C9.944 18.8119 12.4576 17.4911 14.4931 16.6502C14.5824 16.6193 14.5528 16.5602 14.4623 16.4401C14.0138 16.0193 13.3256 15.8092 12.6972 15.8992C11.1712 16.1092 8.83631 16.8005 7.37006 17.4005C7.48957 14.1877 8.14816 10.7346 9.52508 6.59094C9.58483 6.44062 9.52507 6.35067 9.37537 6.38086C8.26767 6.59094 6.98132 7.04129 6.38249 7.46145C5.63458 8.00236 5.42512 8.57284 5.15528 10.0736C4.79611 11.8756 4.49732 14.6984 4.49732 17.7006C4.49732 18.4214 4.46713 19.0824 4.70678 19.5327C4.91624 19.9529 5.54464 20.1334 6.98132 20.4334C7.13041 20.4636 7.22035 20.4334 7.37006 20.3435ZM10.4523 15.0588C10.902 15.028 11.2008 14.9683 11.6499 14.7884C11.7392 14.7582 11.7694 14.6984 11.7996 14.6085C12.1286 13.4971 12.4878 11.5756 12.8765 9.65343C12.9067 9.53329 12.8469 9.44396 12.7274 9.47354C12.2481 9.56348 11.7392 9.68362 11.1108 9.95407C10.3629 10.2541 10.0038 10.5843 9.82387 11.6957C9.70435 12.4165 9.55465 13.3468 9.55465 14.1877C9.55465 14.8186 9.82387 15.0884 10.4523 15.0588ZM16.1657 28.6327C16.7424 28.6327 17.9862 28.1035 18.7748 27.3396C18.8961 27.2226 18.9263 27.1338 18.9263 27.0457C18.7446 24.1952 18.6534 22.4616 18.7138 21.315C18.7748 19.8457 19.0175 18.6117 19.3816 17.671C19.8363 16.5547 20.5645 15.8782 21.5046 15.8493C22.324 15.8197 22.7792 16.437 22.7792 17.4942C22.7792 18.9345 22.051 20.4636 19.503 21.6095C19.3816 21.6681 19.3508 21.7562 19.442 21.8442C19.7759 22.1381 20.5946 22.1381 21.1713 22.05C23.2647 21.7266 25.7216 19.7287 25.6914 16.8775C25.6606 14.8796 24.0225 14.0269 22.2636 14.0565C16.9241 14.1446 15.6501 19.1699 15.6501 24.7244C15.6501 25.723 15.6501 27.2811 15.7412 28.1922C15.772 28.4565 15.8928 28.6327 16.1657 28.6327ZM10.0383 28.7498C11.767 28.7498 13.5566 27.7216 13.9811 25.4292C14.3754 23.284 14.5584 21.4617 14.5584 19.2876C14.5584 19.1403 14.4672 19.0818 14.3458 19.1114C13.6786 19.2284 13.0108 19.4637 12.4348 19.8168C11.767 20.1987 11.6462 20.6103 11.6764 21.3446C11.7368 23.0493 11.7066 24.489 11.5248 25.4883C11.3727 26.3403 11.0998 26.811 10.6747 26.8991C9.79553 27.0753 9.5528 26.0175 9.5528 24.1656C9.5528 23.4602 9.67416 22.4905 9.67416 21.7562C9.67416 21.6089 9.58299 21.6089 9.49181 21.6089C9.00634 21.6089 7.91466 22.1085 7.52038 22.5201C7.09529 22.9901 7.0651 23.5779 7.0651 24.9597C7.0651 27.0753 7.94485 28.7498 10.0383 28.7498Z" fill="#FFFFFE"/>
</svg>
